<svg width="48" height="48" viewBox="0 0 48 48" fill="none" xmlns="http://www.w3.org/2000/svg">
<g clip-path="url(#clip0_28_231)">
<rect width="48" height="48" rx="12" fill="#9AE66E"/>
<rect width="48" height="48" rx="12" fill="url(#paint0_linear_28_231)"/>
<path d="M14.2484 24.4742L13.8169 25.4641C13.5011 26.1889 12.4987 26.1889 12.183 25.4641L11.7515 24.4742C10.9824 22.7091 9.59704 21.3037 7.86842 20.5349L6.53908 19.9436C5.82031 19.6239 5.82031 18.5779 6.53908 18.2582L7.7941 17.7C9.56716 16.9114 10.9773 15.454 11.7332 13.6289L12.1763 12.5592C12.4851 11.8136 13.5148 11.8136 13.8236 12.5592L14.2667 13.6289C15.0226 15.454 16.4328 16.9114 18.2059 17.7L19.4608 18.2582C20.1797 18.5779 20.1797 19.6239 19.4608 19.9436L18.1315 20.5349C16.4029 21.3037 15.0175 22.7091 14.2484 24.4742ZM11.3613 49.8231C13.1549 38.9885 17.0443 15.494 42.75 15.494C40.1324 20.744 38.375 23.369 36.625 25.119L34.875 26.869L37.5 28.619C35.75 33.8691 30.5 39.994 23.5 40.869C18.8301 41.4527 15.9124 44.6611 14.7469 50.494H11.25C11.2863 50.2763 11.3233 50.0525 11.3613 49.8231Z" fill="#173E08"/>
</g>
<defs>
<linearGradient id="paint0_linear_28_231" x1="0" y1="0" x2="48" y2="48" gradientUnits="userSpaceOnUse">
<stop offset="0.2" stop-color="#D9F99D"/>
<stop offset="1" stop-color="#84CC16"/>
</linearGradient>
<clipPath id="clip0_28_231">
<rect width="48" height="48" rx="12" fill="white"/>
</clipPath>
</defs>
</svg>
